<?xml version="1.0" encoding="UTF-8"?>
<svg version="1.1" xmlns="http://www.w3.org/2000/svg" width="48" height="48">
<path d="M0 0 C4.32179272 2.42020392 7.04808776 4.41300624 9 9 C9.54741528 11.78684141 10.00014527 14.56359106 10.375 17.37890625 C11.06358926 20.26667746 12.23980084 21.6610397 14 24 C14 25.32 14 26.64 14 28 C13.24074219 28.02578125 12.48148438 28.0515625 11.69921875 28.078125 C10.70535156 28.13484375 9.71148437 28.1915625 8.6875 28.25 C7.70136719 28.29640625 6.71523438 28.3428125 5.69921875 28.390625 C2.3641143 29.14355741 1.85070889 30.24293221 0 33 C-3 33.5 -3 33.5 -6 33 C-6.43957031 32.34515625 -6.87914062 31.6903125 -7.33203125 31.015625 C-8.86868655 28.74071361 -8.86868655 28.74071361 -11.69921875 28.390625 C-13.17841797 28.32101563 -13.17841797 28.32101563 -14.6875 28.25 C-15.68136719 28.19328125 -16.67523438 28.1365625 -17.69921875 28.078125 C-18.45847656 28.05234375 -19.21773437 28.0265625 -20 28 C-19.6319178 24.83449309 -19.33024393 22.50254511 -17.5625 19.8125 C-15.91429843 16.84573717 -15.55703739 14.76679635 -15.0625 11.4375 C-14.22226831 6.30657698 -14.22226831 6.30657698 -12.1875 3.5 C-11.1046875 2.7575 -11.1046875 2.7575 -10 2 C-9.195625 1.401875 -8.39125 0.80375 -7.5625 0.1875 C-4.38156315 -1.28659269 -3.27167658 -1.19695485 0 0 Z M-8.75 6.8125 C-11.47292497 10.66997705 -11.95972003 13.7577818 -12.54296875 18.37890625 C-13 21 -13 21 -15 25 C-7.08 25 0.84 25 9 25 C8.01 22.36 7.02 19.72 6 17 C5.6442186 15.40487413 5.32127427 13.80120469 5.0625 12.1875 C4.46123629 9.35227276 4.15913655 8.18755379 2.25 5.9375 C-2.1034512 4.123562 -4.78523357 4.19935849 -8.75 6.8125 Z " fill="#FFFFFF" transform="translate(27,8)"/>
</svg>
