<?xml version="1.0" encoding="UTF-8"?>
<svg version="1.1" xmlns="http://www.w3.org/2000/svg" width="48" height="48">
<path d="M0 0 C2.31 0 4.62 0 7 0 C7.66 1.32 8.32 2.64 9 4 C20.55 4 32.1 4 44 4 C44 9.27275398 43.75107969 13.21026852 42.6875 18.25 C42.44386719 19.45140625 42.20023438 20.6528125 41.94921875 21.890625 C40.97868546 25.06982047 40.60701824 26.08126274 38 28 C35.3203125 28.38818359 35.3203125 28.38818359 32.125 28.3984375 C30.97515625 28.40230469 29.8253125 28.40617187 28.640625 28.41015625 C27.43921875 28.39855469 26.2378125 28.38695313 25 28.375 C23.79859375 28.38660156 22.5971875 28.39820312 21.359375 28.41015625 C19.63460938 28.40435547 19.63460938 28.40435547 17.875 28.3984375 C16.82054688 28.39505371 15.76609375 28.39166992 14.6796875 28.38818359 C12 28 12 28 10.20361328 26.7487793 C8.78253953 24.68404273 8.33350599 23.08101418 7.8671875 20.62109375 C7.70089844 19.78255859 7.53460938 18.94402344 7.36328125 18.08007812 C7.20214844 17.20802734 7.04101562 16.33597656 6.875 15.4375 C6.54130147 13.7065981 6.20546559 11.97610648 5.8671875 10.24609375 C5.72394043 9.47966553 5.58069336 8.7132373 5.43310547 7.92358398 C5.0651036 5.93035335 5.0651036 5.93035335 4 4 C2.35636866 3.27840576 0.68949614 2.60648579 -1 2 C-0.67 1.34 -0.34 0.68 0 0 Z M10 7 C10.46666667 20.26666667 10.46666667 20.26666667 16 25 C18.03820652 25.60311889 18.03820652 25.60311889 20.1875 25.53125 C20.96867187 25.53640625 21.74984375 25.5415625 22.5546875 25.546875 C23.36164062 25.53140625 24.16859375 25.5159375 25 25.5 C26.21042969 25.52320313 26.21042969 25.52320313 27.4453125 25.546875 C28.61707031 25.53914063 28.61707031 25.53914063 29.8125 25.53125 C30.87404297 25.52448242 30.87404297 25.52448242 31.95703125 25.51757812 C34.66556232 25.01683086 34.66556232 25.01683086 38 21 C38.66 16.38 39.32 11.76 40 7 C30.1 7 20.2 7 10 7 Z " fill="#FFFFFF" transform="translate(2,6)"/>
<path d="M0 0 C1.98 0 3.96 0 6 0 C6 1.98 6 3.96 6 6 C4.02 6 2.04 6 0 6 C0 4.02 0 2.04 0 0 Z " fill="#FFFFFF" transform="translate(31,36)"/>
<path d="M0 0 C1.98 0 3.96 0 6 0 C6 1.98 6 3.96 6 6 C4.02 6 2.04 6 0 6 C0 4.02 0 2.04 0 0 Z " fill="#FFFFFF" transform="translate(17,36)"/>
</svg>
